# xmcd
#
# Track frame offsets:
# 150
# 13025
# 24965
# 36994
# 47306
# 58639
# 68356
# 78303
# 86400
# 98800
# 107130
# 115945
# 126631
# 136169
#
# Disc length: 1950 seconds
#
#
# Revision: 0
# Processed by: cddbd v1.4PL0 Copyright (c) Steve Scherf et al.
# Submitted via: FreeRIP 2.35 
#
DISCID=ab079c0e
DTITLE=Johnny Cash - From the Vaults, Volume 3
DYEAR=2003
DGENRE=Country
TTITLE0=Folsom Prison Blues
TTITLE1=So Doggone Lonesome
TTITLE2=Doin' My Time
TTITLE3=Straight A's In Love
TTITLE4=I Love You Because
TTITLE5=Down The Street To 301
TTITLE6=The Story Of A Broken Heart
TTITLE7=Hey Good Lookin'
TTITLE8=Goodnight Irene
TTITLE9=I Can't Help It
TTITLE10=Always Alone
TTITLE11=You Win Again
TTITLE12=I Couldn't Keep You From Crying
TTITLE13=Goodbye Little Darling
EXTD=
EXTT0=
EXTT1=
EXTT2=
EXTT3=
EXTT4=
EXTT5=
EXTT6=
EXTT7=
EXTT8=
EXTT9=
EXTT10=
EXTT11=
EXTT12=
EXTT13=
PLAYORDER=
